<?xml version="1.0" encoding="UTF-8"?>
<!DOCTYPE svg PUBLIC "-//W3C//DTD SVG 1.1//EN" "http://www.w3.org/Graphics/SVG/1.1/DTD/svg11.dtd">
<svg xmlns="http://www.w3.org/2000/svg" version="1.1" width="1033px" height="394px" style="shape-rendering:geometricPrecision; text-rendering:geometricPrecision; image-rendering:optimizeQuality; fill-rule:evenodd; clip-rule:evenodd" xmlns:xlink="http://www.w3.org/1999/xlink">
<g><path style="opacity:0.639" fill="#80db84" d="M 691.5,4.5 C 693.364,3.20719 695.364,3.20719 697.5,4.5C 696.717,6.28818 695.384,7.28818 693.5,7.5C 693.715,5.82124 693.048,4.82124 691.5,4.5 Z"/></g>
<g><path style="opacity:1" fill="#13ac0f" d="M 691.5,4.5 C 693.048,4.82124 693.715,5.82124 693.5,7.5C 690.003,10.083 686.336,12.4164 682.5,14.5C 682.167,14.5 681.833,14.5 681.5,14.5C 680.508,14.3284 679.842,14.6618 679.5,15.5C 678.833,15.5 678.5,15.8333 678.5,16.5C 678.167,16.5 677.833,16.5 677.5,16.5C 675.513,17.1642 673.846,18.3308 672.5,20C 674.668,20.2494 676.335,19.4161 677.5,17.5C 677.833,17.5 678.167,17.5 678.5,17.5C 679.492,17.6716 680.158,17.3382 680.5,16.5C 682.28,17.9899 682.946,19.9899 682.5,22.5C 681.817,23.6441 682.151,23.6441 683.5,22.5C 685.713,21.2271 688.046,20.2271 690.5,19.5C 691.492,19.3284 692.158,19.6618 692.5,20.5C 692.833,21.8333 693.167,21.8333 693.5,20.5C 699.296,18.1017 704.963,15.435 710.5,12.5C 714.352,15.0911 714.352,17.4244 710.5,19.5C 710.167,20.1667 709.833,20.8333 709.5,21.5C 708.596,22.209 708.263,23.209 708.5,24.5C 706.965,23.6457 705.632,23.6457 704.5,24.5C 703.833,25.5 703.167,26.5 702.5,27.5C 701.599,28.2905 700.932,29.2905 700.5,30.5C 699.833,30.5 699.5,30.8333 699.5,31.5C 698.508,31.3284 697.842,31.6618 697.5,32.5C 697.167,32.5 696.833,32.5 696.5,32.5C 695.508,32.3284 694.842,32.6618 694.5,33.5C 694.5,33.8333 694.5,34.1667 694.5,34.5C 694.167,34.5 693.833,34.5 693.5,34.5C 692.027,35.072 690.693,35.9054 689.5,37C 691.14,37.3478 692.473,36.8478 693.5,35.5C 693.833,35.5 694.167,35.5 694.5,35.5C 696.674,35.2503 698.341,34.2503 699.5,32.5C 701.38,32.7709 702.713,32.1042 703.5,30.5C 705.612,28.2295 708.279,26.8961 711.5,26.5C 712.506,26.9377 712.506,27.6043 711.5,28.5C 710.016,30.0737 708.349,31.407 706.5,32.5C 704.973,32.427 703.973,33.0937 703.5,34.5C 702.833,34.5 702.5,34.8333 702.5,35.5C 701.761,35.369 701.094,35.5357 700.5,36C 701.416,36.2784 702.082,36.7784 702.5,37.5C 702.672,38.4916 702.338,39.1583 701.5,39.5C 700.903,39.7352 700.57,40.2352 700.5,41C 702.1,42.1233 703.1,43.6233 703.5,45.5C 700.216,47.2919 697.216,49.2919 694.5,51.5C 691.833,51.8333 691.833,52.1667 694.5,52.5C 697.801,52.3468 700.801,51.3468 703.5,49.5C 704.416,49.5427 705.083,49.8761 705.5,50.5C 704.128,52.0887 702.461,53.4221 700.5,54.5C 701.729,55.2811 703.062,55.7811 704.5,56C 705.252,56.6708 705.586,57.5041 705.5,58.5C 705.011,59.9952 704.345,61.3285 703.5,62.5C 701.821,62.2852 700.821,62.9519 700.5,64.5C 699.508,64.3284 698.842,64.6618 698.5,65.5C 696.821,65.2852 695.821,65.9519 695.5,67.5C 694.833,67.8333 694.167,68.1667 693.5,68.5C 691.656,69.2039 691.156,70.5372 692,72.5C 692.383,71.944 692.883,71.6107 693.5,71.5C 699.277,67.6152 705.277,64.2819 711.5,61.5C 716.921,61.9581 717.921,63.7915 714.5,67C 716.352,67.7726 717.686,67.2726 718.5,65.5C 719.167,65.5 719.5,65.1667 719.5,64.5C 719.833,64.5 720.167,64.5 720.5,64.5C 721.167,64.5 721.5,64.1667 721.5,63.5C 723.167,63.5 724.833,63.5 726.5,63.5C 727.551,64.2223 728.218,65.2223 728.5,66.5C 727.167,66.5 725.833,66.5 724.5,66.5C 724.67,67.8221 724.337,68.9887 723.5,70C 718.447,72.5266 713.447,75.0266 708.5,77.5C 706.708,77.634 705.042,77.3007 703.5,76.5C 702.604,77.5063 701.938,77.5063 701.5,76.5C 701.392,71.8634 700.392,71.53 698.5,75.5C 698.624,76.1067 698.957,76.44 699.5,76.5C 699.833,76.5 700.167,76.5 700.5,76.5C 700.137,78.9115 701.137,80.4115 703.5,81C 702.956,81.7172 702.289,82.2172 701.5,82.5C 699.5,82.5 697.5,82.5 695.5,82.5C 695.762,83.9778 695.429,85.3112 694.5,86.5C 693.261,86.9424 692.261,87.6091 691.5,88.5C 690.662,88.8417 690.328,89.5084 690.5,90.5C 688.483,91.5294 686.483,92.5294 684.5,93.5C 683.508,93.3284 682.842,93.6618 682.5,94.5C 681.167,94.8333 681.167,95.1667 682.5,95.5C 683.167,95.5 683.833,95.5 684.5,95.5C 684.5,95.8333 684.5,96.1667 684.5,96.5C 685.686,97.9613 685.686,99.2946 684.5,100.5C 683.5,100.5 682.5,100.5 681.5,100.5C 681.167,102.5 680.833,104.5 680.5,106.5C 678.379,106.325 676.379,106.659 674.5,107.5C 673.167,108.833 671.833,110.167 670.5,111.5C 670.167,110.167 669.833,110.167 669.5,111.5C 668.833,111.5 668.5,111.833 668.5,112.5C 669.189,113.774 670.023,113.774 671,112.5C 671.483,113.448 671.649,114.448 671.5,115.5C 670.006,116.399 668.506,116.065 667,114.5C 665.519,115.471 664.685,116.804 664.5,118.5C 664.5,119.167 664.5,119.833 664.5,120.5C 662.5,121.167 660.5,121.833 658.5,122.5C 656.777,123.605 655.777,125.272 655.5,127.5C 655.167,127.5 654.833,127.5 654.5,127.5C 653.655,128.671 652.989,130.005 652.5,131.5C 652.672,132.492 652.338,133.158 651.5,133.5C 650.833,133.167 650.167,132.833 649.5,132.5C 648.127,132.343 646.793,132.51 645.5,133C 644.183,134.767 642.516,136.101 640.5,137C 642.836,138.27 642.836,139.77 640.5,141.5C 639.575,140.359 638.741,140.359 638,141.5C 637.505,143.473 637.338,145.473 637.5,147.5C 634.824,146.992 632.157,146.825 629.5,147C 630.687,148.019 631.687,149.186 632.5,150.5C 629.513,152.82 626.846,155.487 624.5,158.5C 622.804,158.315 621.471,157.481 620.5,156C 618.536,155.376 616.869,155.876 615.5,157.5C 620.27,157.849 621.27,159.683 618.5,163C 617.207,163.49 615.873,163.657 614.5,163.5C 614.611,162.883 614.944,162.383 615.5,162C 614.207,161.51 612.873,161.343 611.5,161.5C 610.167,161.833 610.167,162.167 611.5,162.5C 611.842,163.338 612.508,163.672 613.5,163.5C 613.5,164.833 613.5,166.167 613.5,167.5C 613.5,167.833 613.5,168.167 613.5,168.5C 612.833,169.167 612.167,169.833 611.5,170.5C 608.282,170.651 607.949,171.484 610.5,173C 609.627,174.045 608.627,174.878 607.5,175.5C 605.5,175.5 604.5,176.5 604.5,178.5C 597.119,187.266 589.285,195.599 581,203.5C 571.223,218.499 560.557,232.833 549,246.5C 537.443,263.889 526.943,281.889 517.5,300.5C 515.896,301.287 515.229,302.62 515.5,304.5C 511.351,314.293 507.018,323.96 502.5,333.5C 500.232,335.992 499.232,338.658 499.5,341.5C 494.346,354.479 489.18,367.479 484,380.5C 481.408,381.982 479.075,381.648 477,379.5C 475.477,381.569 474.643,383.903 474.5,386.5C 472.856,386.714 471.356,386.38 470,385.5C 469.998,370.652 468.498,355.986 465.5,341.5C 465.829,338.772 465.163,336.438 463.5,334.5C 458.996,318.826 451.829,304.492 442,291.5C 437.62,286.617 432.786,282.284 427.5,278.5C 424.695,274.924 421.028,272.591 416.5,271.5C 415.609,270.89 414.609,270.557 413.5,270.5C 413.5,268.833 413.5,267.167 413.5,265.5C 413.205,263.265 413.539,261.265 414.5,259.5C 417.48,259.759 419.313,258.426 420,255.5C 420.019,248.963 420.852,242.63 422.5,236.5C 421.47,233.433 420.137,230.433 418.5,227.5C 418.043,226.702 417.376,226.369 416.5,226.5C 416.5,225.5 416.5,224.5 416.5,223.5C 418.017,223.489 419.184,222.823 420,221.5C 419.785,218.189 419.785,214.856 420,211.5C 420.833,210.5 421.667,209.5 422.5,208.5C 423.995,209.705 425.328,209.705 426.5,208.5C 430.466,210.778 434.466,213.112 438.5,215.5C 439.429,214.311 439.762,212.978 439.5,211.5C 441.199,211.34 442.866,211.506 444.5,212C 461.012,228.854 474.179,248.021 484,269.5C 496.567,225.26 514.067,183.26 536.5,143.5C 538.877,141.772 540.544,139.439 541.5,136.5C 551.583,118.096 563.916,101.429 578.5,86.5C 580.914,85.0892 582.581,83.0892 583.5,80.5C 586.194,77.1395 589.194,74.1395 592.5,71.5C 593.906,71.0269 594.573,70.0269 594.5,68.5C 597.483,65.187 600.817,62.187 604.5,59.5C 606.5,59.5 607.5,58.5 607.5,56.5C 633.226,35.6299 661.226,18.2966 691.5,4.5 Z"/></g>
<g><path style="opacity:0.994" fill="#72d06d" d="M 683.5,22.5 C 683.167,22.5 682.833,22.5 682.5,22.5C 682.946,19.9899 682.28,17.9899 680.5,16.5C 680.5,15.8333 680.167,15.5 679.5,15.5C 679.842,14.6618 680.508,14.3284 681.5,14.5C 681.833,15.8333 682.167,15.8333 682.5,14.5C 687.326,12.7845 692.326,11.4512 697.5,10.5C 697.703,12.3904 697.037,13.8904 695.5,15C 691.757,16.1365 688.09,17.4698 684.5,19C 683.663,20.0113 683.33,21.1779 683.5,22.5 Z"/></g>
<g><path style="opacity:0.035" fill="#d5f9e5" d="M 679.5,15.5 C 680.167,15.5 680.5,15.8333 680.5,16.5C 680.158,17.3382 679.492,17.6716 678.5,17.5C 678.5,17.1667 678.5,16.8333 678.5,16.5C 678.5,15.8333 678.833,15.5 679.5,15.5 Z"/></g>
<g><path style="opacity:0.176" fill="#8be49b" d="M 677.5,16.5 C 677.5,16.8333 677.5,17.1667 677.5,17.5C 676.335,19.4161 674.668,20.2494 672.5,20C 673.846,18.3308 675.513,17.1642 677.5,16.5 Z"/></g>
<g><path style="opacity:0.416" fill="#adf1bf" d="M 693.5,20.5 C 693.167,20.5 692.833,20.5 692.5,20.5C 692.158,19.6618 691.492,19.3284 690.5,19.5C 691.427,17.5241 692.76,17.1908 694.5,18.5C 694.137,19.1835 693.804,19.8501 693.5,20.5 Z"/></g>
<g><path style="opacity:0.286" fill="#b8f8e7" d="M 710.5,19.5 C 711.757,20.6226 711.424,21.2893 709.5,21.5C 709.833,20.8333 710.167,20.1667 710.5,19.5 Z"/></g>
<g><path style="opacity:0.122" fill="#c7fcf0" d="M 704.5,24.5 C 705.632,23.6457 706.965,23.6457 708.5,24.5C 707.295,25.6857 705.961,25.6857 704.5,24.5 Z"/></g>
<g><path style="opacity:0.043" fill="#ccfcd9" d="M 711.5,28.5 C 712.506,27.6043 712.506,26.9377 711.5,26.5C 713.119,24.7615 715.119,24.2615 717.5,25C 715.609,26.4424 713.609,27.6091 711.5,28.5 Z"/></g>
<g><path style="opacity:0.686" fill="#94e5a1" d="M 702.5,27.5 C 702.263,28.791 702.596,29.791 703.5,30.5C 702.713,32.1042 701.38,32.7709 699.5,32.5C 699.5,32.1667 699.5,31.8333 699.5,31.5C 699.5,30.8333 699.833,30.5 700.5,30.5C 700.932,29.2905 701.599,28.2905 702.5,27.5 Z"/></g>
<g><path style="opacity:0.486" fill="#91e790" d="M 694.5,33.5 C 694.842,32.6618 695.508,32.3284 696.5,32.5C 696.833,33.8333 697.167,33.8333 697.5,32.5C 698.167,32.5 698.833,32.5 699.5,32.5C 698.341,34.2503 696.674,35.2503 694.5,35.5C 694.5,35.1667 694.5,34.8333 694.5,34.5C 695.833,34.1667 695.833,33.8333 694.5,33.5 Z"/></g>
<g><path style="opacity:0.263" fill="#cafdf0" d="M 706.5,32.5 C 707.675,32.281 708.675,32.6143 709.5,33.5C 707.138,34.8796 704.805,36.2129 702.5,37.5C 702.082,36.7784 701.416,36.2784 700.5,36C 701.094,35.5357 701.761,35.369 702.5,35.5C 703.167,35.5 703.5,35.1667 703.5,34.5C 703.973,33.0937 704.973,32.427 706.5,32.5 Z"/></g>
<g><path style="opacity:0.078" fill="#9eedb0" d="M 693.5,34.5 C 693.5,34.8333 693.5,35.1667 693.5,35.5C 692.473,36.8478 691.14,37.3478 689.5,37C 690.693,35.9054 692.027,35.072 693.5,34.5 Z"/></g>
<g><path style="opacity:0.992" fill="#6dd569" d="M 701.5,39.5 C 701.369,40.3764 701.702,41.0431 702.5,41.5C 703.5,40.8333 704.5,40.1667 705.5,39.5C 706.989,42.2108 706.322,44.2108 703.5,45.5C 703.1,43.6233 702.1,42.1233 700.5,41C 700.57,40.2352 700.903,39.7352 701.5,39.5 Z"/></g>
<g><path style="opacity:0.995" fill="#4fc849" d="M 705.5,58.5 C 705.586,57.5041 705.252,56.6708 704.5,56C 703.062,55.7811 701.729,55.2811 700.5,54.5C 702.461,53.4221 704.128,52.0887 705.5,50.5C 705.083,49.8761 704.416,49.5427 703.5,49.5C 700.801,51.3468 697.801,52.3468 694.5,52.5C 694.5,52.1667 694.5,51.8333 694.5,51.5C 699.71,49.317 705.043,47.317 710.5,45.5C 711.271,47.7666 712.604,49.6 714.5,51C 712.306,54.4353 709.306,56.9353 705.5,58.5 Z"/></g>
<g><path style="opacity:0.11" fill="#ccf7e3" d="M 705.5,50.5 C 707.446,50.1928 709.113,50.1928 710.5,50.5C 709.264,51.3567 707.931,52.0234 706.5,52.5C 705.702,52.0431 705.369,51.3764 705.5,50.5 Z"/></g>
<g><path style="opacity:0.004" fill="#d5f5e4" d="M 691.5,52.5 C 690.794,54.8764 689.127,56.2097 686.5,56.5C 687.782,54.8205 689.449,53.4871 691.5,52.5 Z"/></g>
<g><path style="opacity:0.412" fill="#a6ebb5" d="M 607.5,56.5 C 607.5,58.5 606.5,59.5 604.5,59.5C 605.167,58.1667 606.167,57.1667 607.5,56.5 Z"/></g>
<g><path style="opacity:0.098" fill="#a6eab9" d="M 703.5,62.5 C 702.71,63.4013 701.71,64.0679 700.5,64.5C 700.821,62.9519 701.821,62.2852 703.5,62.5 Z"/></g>
<g><path style="opacity:0.702" fill="#80e184" d="M 711.5,61.5 C 713.683,60.1566 715.683,60.49 717.5,62.5C 718.492,62.3284 719.158,62.6618 719.5,63.5C 719.5,63.8333 719.5,64.1667 719.5,64.5C 718.833,64.5 718.5,64.8333 718.5,65.5C 717.686,67.2726 716.352,67.7726 714.5,67C 717.921,63.7915 716.921,61.9581 711.5,61.5 Z"/></g>
<g><path style="opacity:0.216" fill="#b3f3bf" d="M 721.5,63.5 C 721.5,64.1667 721.167,64.5 720.5,64.5C 720.5,63.8333 720.167,63.5 719.5,63.5C 719.158,62.6618 718.492,62.3284 717.5,62.5C 719.347,61.3127 721.18,59.9794 723,58.5C 724.059,58.6301 724.892,59.1301 725.5,60C 723.676,60.66 722.343,61.8267 721.5,63.5 Z"/></g>
<g><path style="opacity:0.184" fill="#cef6e5" d="M 726.5,63.5 C 727.5,63.5 728.5,63.5 729.5,63.5C 729.737,64.791 729.404,65.791 728.5,66.5C 728.218,65.2223 727.551,64.2223 726.5,63.5 Z"/></g>
<g><path style="opacity:0.086" fill="#b0eabc" d="M 698.5,65.5 C 697.71,66.4013 696.71,67.0679 695.5,67.5C 695.821,65.9519 696.821,65.2852 698.5,65.5 Z"/></g>
<g><path style="opacity:0.275" fill="#ade7b0" d="M 594.5,68.5 C 594.573,70.0269 593.906,71.0269 592.5,71.5C 592.427,69.9731 593.094,68.9731 594.5,68.5 Z"/></g>
<g><path style="opacity:0.047" fill="#c6f5d4" d="M 693.5,68.5 C 693.5,69.5 693.5,70.5 693.5,71.5C 692.883,71.6107 692.383,71.944 692,72.5C 691.156,70.5372 691.656,69.2039 693.5,68.5 Z"/></g>
<g><path style="opacity:0.016" fill="#d8fae9" d="M 708.5,68.5 C 709.552,68.3505 710.552,68.5172 711.5,69C 709.333,70.5 707.167,72 705,73.5C 705.749,71.7746 706.915,70.1079 708.5,68.5 Z"/></g>
<g><path style="opacity:0.071" fill="#a7f1b2" d="M 701.5,76.5 C 701.167,76.5 700.833,76.5 700.5,76.5C 700.167,75.1667 699.833,75.1667 699.5,76.5C 698.957,76.44 698.624,76.1067 698.5,75.5C 700.392,71.53 701.392,71.8634 701.5,76.5 Z"/></g>
<g><path style="opacity:0.247" fill="#9ceca1" d="M 703.5,76.5 C 705.042,77.3007 706.708,77.634 708.5,77.5C 707.359,78.339 706.026,79.0057 704.5,79.5C 703.614,78.675 703.281,77.675 703.5,76.5 Z"/></g>
<g><path style="opacity:0.612" fill="#7ce19f" d="M 583.5,80.5 C 582.581,83.0892 580.914,85.0892 578.5,86.5C 579.419,83.9108 581.086,81.9108 583.5,80.5 Z"/></g>
<g><path style="opacity:0.972" fill="#fefefe" d="M 128.5,86.5 C 129.97,88.1595 130.637,90.1595 130.5,92.5C 128.243,110.097 126.743,127.763 126,145.5C 125.333,193.167 125.333,240.833 126,288.5C 126.796,309.19 127.962,329.857 129.5,350.5C 129.674,352.693 129.007,354.527 127.5,356C 123.283,358.451 118.95,360.285 114.5,361.5C 112.08,361.708 109.747,361.374 107.5,360.5C 104.523,356.358 102.023,352.025 100,347.5C 97.5315,333.462 95.5315,319.462 94,305.5C 93.8313,290.661 93.3313,275.994 92.5,261.5C 92.5299,260.503 92.0299,259.836 91,259.5C 83.4929,261.336 75.9929,263.17 68.5,265C 62.1151,265.793 55.7818,265.626 49.5,264.5C 47.4205,288.515 45.2539,312.515 43,336.5C 35.9074,342.859 27.7408,344.692 18.5,342C 15.6424,340.306 13.309,338.139 11.5,335.5C 11.7719,331.098 11.4386,326.765 10.5,322.5C 12.1045,320.821 12.7711,318.821 12.5,316.5C 14.539,298.186 16.2057,279.686 17.5,261C 17.4944,258.967 17.1611,257.134 16.5,255.5C 15.9246,252.384 15.5913,249.217 15.5,246C 16.7858,238.306 17.7858,230.473 18.5,222.5C 19.0107,202.693 19.8441,183.026 21,163.5C 21.4999,145.17 21.6666,126.836 21.5,108.5C 30.7279,102.782 40.7279,101.116 51.5,103.5C 50.0358,139.153 49.0358,174.819 48.5,210.5C 49.8333,210.5 51.1667,210.5 52.5,210.5C 63.9576,209.979 75.2909,208.479 86.5,206C 89.4336,204.438 91.7669,202.272 93.5,199.5C 91.203,196.513 91.0363,193.513 93,190.5C 92.6637,157.313 94.8303,124.313 99.5,91.5C 100.5,91.5 101.5,91.5 102.5,91.5C 102.954,87.5641 105.288,85.3974 109.5,85C 115.167,84.3333 120.833,84.3333 126.5,85C 127.416,85.2784 128.082,85.7784 128.5,86.5 Z"/></g>
<g><path style="opacity:0.141" fill="#c2f7d5" d="M 704.5,82.5 C 704.423,83.7498 703.756,84.5831 702.5,85C 702.728,85.3988 703.062,85.5654 703.5,85.5C 703.167,86.5 702.5,87.1667 701.5,87.5C 701.158,86.6618 700.492,86.3284 699.5,86.5C 699.833,85.8333 700.167,85.1667 700.5,84.5C 701.167,84.5 701.5,84.1667 701.5,83.5C 702.609,83.4431 703.609,83.1098 704.5,82.5 Z"/></g>
<g><path style="opacity:0.702" fill="#85db87" d="M 703.5,85.5 C 703.062,85.5654 702.728,85.3988 702.5,85C 703.756,84.5831 704.423,83.7498 704.5,82.5C 704.369,81.6236 704.702,80.9569 705.5,80.5C 706.95,81.8498 707.617,83.5165 707.5,85.5C 706.167,85.5 704.833,85.5 703.5,85.5 Z"/></g>
<g><path style="opacity:0.706" fill="#6dd56b" d="M 701.5,82.5 C 701.5,82.8333 701.5,83.1667 701.5,83.5C 700.833,83.5 700.5,83.8333 700.5,84.5C 696.194,85.0658 695.861,85.7325 699.5,86.5C 700.492,86.3284 701.158,86.6618 701.5,87.5C 701.092,88.6431 700.425,89.6431 699.5,90.5C 698.167,89.1667 696.833,89.1667 695.5,90.5C 694.735,89.3881 693.735,88.7214 692.5,88.5C 692.167,88.5 691.833,88.5 691.5,88.5C 692.261,87.6091 693.261,86.9424 694.5,86.5C 695.429,85.3112 695.762,83.9778 695.5,82.5C 697.5,82.5 699.5,82.5 701.5,82.5 Z"/></g>
<g><path style="opacity:0.118" fill="#cefeee" d="M 691.5,88.5 C 691.833,88.5 692.167,88.5 692.5,88.5C 692.719,89.675 692.386,90.675 691.5,91.5C 690.893,91.3764 690.56,91.0431 690.5,90.5C 690.328,89.5084 690.662,88.8417 691.5,88.5 Z"/></g>
<g><path style="opacity:0.041" fill="#e0fefe" d="M 684.5,93.5 C 684.5,94.1667 684.5,94.8333 684.5,95.5C 683.833,95.5 683.167,95.5 682.5,95.5C 682.5,95.1667 682.5,94.8333 682.5,94.5C 682.842,93.6618 683.508,93.3284 684.5,93.5 Z"/></g>
<g><path style="opacity:0.043" fill="#ddfbdf" d="M 684.5,100.5 C 685.686,99.2946 685.686,97.9613 684.5,96.5C 685.824,95.1501 686.824,95.3167 687.5,97C 687.122,98.6349 686.456,100.135 685.5,101.5C 684.893,101.376 684.56,101.043 684.5,100.5 Z"/></g>
<g><path style="opacity:0.38" fill="#d8d8d8" d="M 51.5,103.5 C 52.5832,103.539 53.5832,103.873 54.5,104.5C 54.8333,109.833 55.1667,115.167 55.5,120.5C 54.0797,140.544 53.0797,160.711 52.5,181C 52.9511,189.308 53.2845,197.641 53.5,206C 52.8333,207.333 51.8333,208.333 50.5,209C 51.4158,209.278 52.0825,209.778 52.5,210.5C 51.1667,210.5 49.8333,210.5 48.5,210.5C 49.0358,174.819 50.0358,139.153 51.5,103.5 Z"/></g>
<g><path style="opacity:0.58" fill="#87e48f" d="M 674.5,107.5 C 674.023,110.438 673.023,113.104 671.5,115.5C 671.649,114.448 671.483,113.448 671,112.5C 670.023,113.774 669.189,113.774 668.5,112.5C 669.167,112.5 669.5,112.167 669.5,111.5C 669.833,111.5 670.167,111.5 670.5,111.5C 671.833,110.167 673.167,108.833 674.5,107.5 Z"/></g>
<g><path style="opacity:0.365" fill="#b5fbdf" d="M 655.5,116.5 C 657.337,116.639 657.67,117.306 656.5,118.5C 655.702,118.043 655.369,117.376 655.5,116.5 Z"/></g>
<g><path style="opacity:0.043" fill="#d7fee6" d="M 664.5,118.5 C 667.167,119.167 667.167,119.833 664.5,120.5C 664.5,119.833 664.5,119.167 664.5,118.5 Z"/></g>
<g><path style="opacity:0.067" fill="#d2fcea" d="M 647.5,122.5 C 647.511,119.999 648.178,119.832 649.5,122C 648.906,122.464 648.239,122.631 647.5,122.5 Z"/></g>
<g><path style="opacity:0.131" fill="#c0f7dd" d="M 658.5,122.5 C 657.248,124.339 657.248,126.172 658.5,128C 657.423,128.47 656.423,128.303 655.5,127.5C 655.777,125.272 656.777,123.605 658.5,122.5 Z"/></g>
<g><path style="opacity:0.973" fill="#fefefe" d="M 868.5,130.5 C 884.04,138.562 891.04,151.562 889.5,169.5C 889.965,190.973 884.798,210.973 874,229.5C 863.846,246.307 852.346,262.14 839.5,277C 841.551,279.02 843.884,280.52 846.5,281.5C 856.44,286.262 866.773,290.262 877.5,293.5C 877.695,297.915 877.195,302.249 876,306.5C 871.051,316.722 867.551,327.389 865.5,338.5C 859.655,338.849 853.988,338.016 848.5,336C 840.921,332.101 833.588,327.935 826.5,323.5C 823.769,321.802 820.769,320.469 817.5,319.5C 816.638,324.639 816.305,329.639 816.5,334.5C 809.667,338.609 802.334,339.609 794.5,337.5C 792.839,315.849 791.839,293.849 791.5,271.5C 790.7,261.126 789.7,250.793 788.5,240.5C 784.377,239.471 780.377,238.137 776.5,236.5C 773.131,228.813 771.131,220.813 770.5,212.5C 771.859,201.678 773.859,191.011 776.5,180.5C 777.5,180.5 778.5,180.5 779.5,180.5C 781.131,175.378 783.131,170.378 785.5,165.5C 786.5,165.5 787.5,165.5 788.5,165.5C 789.684,162.625 791.351,159.958 793.5,157.5C 808.614,143.276 826.28,133.776 846.5,129C 853.974,128.037 861.307,128.537 868.5,130.5 Z M 854.5,176.5 C 856.089,178.306 858.089,179.639 860.5,180.5C 861.409,182.404 862.409,184.238 863.5,186C 861.06,192.592 858.393,199.092 855.5,205.5C 854.5,205.5 853.5,205.5 852.5,205.5C 850.5,209.5 848.5,213.5 846.5,217.5C 845.5,217.5 844.5,217.5 843.5,217.5C 841.5,221.5 839.5,225.5 837.5,229.5C 835.857,229.48 834.524,230.147 833.5,231.5C 831.5,234.833 829.5,238.167 827.5,241.5C 826.735,242.612 825.735,243.279 824.5,243.5C 823.883,243.611 823.383,243.944 823,244.5C 822.757,233.01 819.757,222.343 814,212.5C 818.854,190.961 832.354,178.961 854.5,176.5 Z"/></g>
<g><path style="opacity:0.071" fill="#cff4db" d="M 654.5,127.5 C 654.843,129.483 654.176,130.817 652.5,131.5C 652.989,130.005 653.655,128.671 654.5,127.5 Z"/></g>
<g><path style="opacity:0.974" fill="#fefefe" d="M 758.5,130.5 C 761.831,132.677 763.164,135.844 762.5,140C 762.074,149.131 760.241,157.964 757,166.5C 751.397,175.555 743.231,180.389 732.5,181C 720.167,181.333 707.833,181.667 695.5,182C 690.105,182.743 685.105,184.576 680.5,187.5C 679.501,200.149 679.168,212.816 679.5,225.5C 680.833,225.5 682.167,225.5 683.5,225.5C 693.844,222.442 704.177,219.275 714.5,216C 719.155,215.501 723.821,215.334 728.5,215.5C 730.461,217.292 731.795,219.458 732.5,222C 732.012,231.91 731.179,241.744 730,251.5C 729.097,252.701 727.931,253.535 726.5,254C 710.945,257.465 695.611,261.631 680.5,266.5C 681.083,275.155 681.416,283.822 681.5,292.5C 682.833,292.5 684.167,292.5 685.5,292.5C 686.967,292.894 688.467,293.227 690,293.5C 711.479,290.93 732.979,289.93 754.5,290.5C 757.326,301.928 756.493,313.261 752,324.5C 748.716,330.785 743.549,334.285 736.5,335C 708.337,336.087 680.337,337.253 652.5,338.5C 651.834,335.972 651.168,333.306 650.5,330.5C 649.333,276.836 649.167,223.17 650,169.5C 651.466,161.672 651.966,153.672 651.5,145.5C 662.759,139.848 674.759,136.348 687.5,135C 711.037,131.481 734.704,129.981 758.5,130.5 Z"/></g>
<g><path style="opacity:0.967" fill="#fefefe" d="M 1004.5,133.5 C 1015.4,139.649 1019.57,148.982 1017,161.5C 1013.23,180.875 1005.73,198.708 994.5,215C 995.563,216.188 996.897,216.688 998.5,216.5C 1003.45,217.65 1008.12,219.484 1012.5,222C 1013.82,222.816 1014.49,223.983 1014.5,225.5C 1014.06,225.435 1013.73,225.601 1013.5,226C 1022.82,236.424 1025.98,248.59 1023,262.5C 1015,295.503 995.171,318.336 963.5,331C 949.034,335.785 934.367,336.618 919.5,333.5C 910.194,329.714 905.194,322.714 904.5,312.5C 905.467,305.205 907.634,298.205 911,291.5C 914.056,288.408 916.89,285.075 919.5,281.5C 920.325,280.614 921.325,280.281 922.5,280.5C 924.881,261.592 926.214,242.592 926.5,223.5C 906.297,225.031 899.964,216.364 907.5,197.5C 912.029,189.776 916.029,181.776 919.5,173.5C 920.5,173.5 921.5,173.5 922.5,173.5C 924.864,168.625 927.531,163.958 930.5,159.5C 931.675,159.719 932.675,159.386 933.5,158.5C 935.377,154.612 938.377,152.278 942.5,151.5C 942.281,150.325 942.614,149.325 943.5,148.5C 957.327,137.033 973.327,131.366 991.5,131.5C 996.107,131.316 1000.44,131.983 1004.5,133.5 Z M 984.5,174.5 C 983.167,178.5 981.833,182.5 980.5,186.5C 979.5,186.5 978.5,186.5 977.5,186.5C 975.539,190.478 973.539,194.478 971.5,198.5C 966.136,202.853 960.47,206.853 954.5,210.5C 953.972,201.605 954.805,192.938 957,184.5C 962.336,177.166 969.17,171.666 977.5,168C 983.154,166.502 985.487,168.669 984.5,174.5 Z M 989.5,249.5 C 995.942,253.022 998.608,258.522 997.5,266C 997.943,272.166 996.277,277.666 992.5,282.5C 981.325,295.921 966.991,303.255 949.5,304.5C 949.5,301.833 949.5,299.167 949.5,296.5C 950.222,296.082 950.722,295.416 951,294.5C 950.935,282.301 952.268,270.301 955,258.5C 965.289,250.886 976.789,247.886 989.5,249.5 Z"/></g>
<g><path style="opacity:0.031" fill="#e5fffe" d="M 649.5,132.5 C 650.167,132.833 650.833,133.167 651.5,133.5C 650.377,134.757 649.711,134.424 649.5,132.5 Z"/></g>
<g><path style="opacity:0.975" fill="#fefefe" d="M 262.5,135.5 C 265.163,147.402 263.996,159.068 259,170.5C 253.14,179.85 244.64,184.683 233.5,185C 221.5,185.333 209.5,185.667 197.5,186C 192.105,186.743 187.105,188.576 182.5,191.5C 181.501,204.149 181.168,216.816 181.5,229.5C 183.483,229.843 184.817,229.176 185.5,227.5C 186.265,227.923 187.098,228.257 188,228.5C 197.45,225.526 206.95,222.693 216.5,220C 222.349,219.182 228.015,219.348 233.5,220.5C 232.761,220.369 232.094,220.536 231.5,221C 233.357,222.182 234.357,223.849 234.5,226C 233.734,235.144 233.234,244.31 233,253.5C 232.535,254.931 231.701,256.097 230.5,257C 214.388,260.98 198.388,265.48 182.5,270.5C 182.833,279.167 183.167,287.833 183.5,296.5C 184.5,296.5 185.5,296.5 186.5,296.5C 188.199,296.62 189.865,296.954 191.5,297.5C 213.171,294.933 234.838,293.933 256.5,294.5C 259.417,306.732 258.25,318.732 253,330.5C 250.408,333.762 247.241,336.262 243.5,338C 213.563,340.332 183.563,341.498 153.5,341.5C 151.254,286.872 150.921,232.205 152.5,177.5C 153.167,168.167 153.833,158.833 154.5,149.5C 157.533,147.204 160.867,145.37 164.5,144C 196.918,136.521 229.585,133.688 262.5,135.5 Z"/></g>
<g><path style="opacity:0.456" fill="#d7d7d7" d="M 758.5,130.5 C 761.585,130.542 763.919,131.875 765.5,134.5C 767.499,145.288 766.332,155.622 762,165.5C 756.762,174.595 748.929,180.095 738.5,182C 723.849,182.988 709.182,183.655 694.5,184C 691.089,185.203 687.756,186.703 684.5,188.5C 683.501,200.815 683.168,213.149 683.5,225.5C 682.167,225.5 680.833,225.5 679.5,225.5C 679.168,212.816 679.501,200.149 680.5,187.5C 685.105,184.576 690.105,182.743 695.5,182C 707.833,181.667 720.167,181.333 732.5,181C 743.231,180.389 751.397,175.555 757,166.5C 760.241,157.964 762.074,149.131 762.5,140C 763.164,135.844 761.831,132.677 758.5,130.5 Z"/></g>
<g><path style="opacity:0.967" fill="#fefefe" d="M 378.5,137.5 C 387.284,141.89 391.617,149.056 391.5,159C 390.855,167.749 389.021,176.249 386,184.5C 380.948,196.272 375.114,207.605 368.5,218.5C 369.32,220.111 370.654,220.778 372.5,220.5C 374.954,221.227 377.287,222.227 379.5,223.5C 396.849,236.517 402.016,253.517 395,274.5C 382.421,310.747 357.254,332.247 319.5,339C 311.798,339.731 304.131,339.564 296.5,338.5C 285.093,335.747 279.093,328.413 278.5,316.5C 278.987,310.547 280.487,304.88 283,299.5C 285.541,295.94 288.041,292.273 290.5,288.5C 291.524,287.147 292.857,286.48 294.5,286.5C 295.759,281.485 296.925,276.485 298,271.5C 298.393,256.684 299.227,242.017 300.5,227.5C 292.248,228.999 285.082,226.999 279,221.5C 278.17,219.172 277.337,216.838 276.5,214.5C 278.379,208.387 280.546,202.387 283,196.5C 288.565,186.589 294.398,176.923 300.5,167.5C 301.675,167.719 302.675,167.386 303.5,166.5C 322.911,141.947 347.911,132.281 378.5,137.5 Z M 358.5,178.5 C 357.13,182.244 355.463,185.911 353.5,189.5C 347.654,198.171 340.654,205.838 332.5,212.5C 330.978,213.562 329.312,214.229 327.5,214.5C 325.237,213.41 325.07,212.077 327,210.5C 326.802,202.527 327.969,194.86 330.5,187.5C 335.793,181.039 342.126,175.872 349.5,172C 355.88,169.838 358.88,172.004 358.5,178.5 Z M 365.5,254.5 C 366.67,256.279 368.336,257.279 370.5,257.5C 371.381,261.6 372.048,265.767 372.5,270C 372.167,272.5 371.833,275 371.5,277.5C 361.439,295.547 346.106,306.214 325.5,309.5C 324.416,309.315 323.416,308.982 322.5,308.5C 323.532,295.212 324.699,281.879 326,268.5C 327.043,266.299 327.877,263.966 328.5,261.5C 339.96,254.215 352.294,251.881 365.5,254.5 Z"/></g>
<g><path style="opacity:0.953" fill="#fefefe" d="M 541.5,136.5 C 540.544,139.439 538.877,141.772 536.5,143.5C 503.832,143.333 471.165,143.5 438.5,144C 431,144.833 426.833,149 426,156.5C 425.171,174.005 425.338,191.338 426.5,208.5C 425.328,209.705 423.995,209.705 422.5,208.5C 421.667,209.5 420.833,210.5 420,211.5C 419.785,214.856 419.785,218.189 420,221.5C 419.184,222.823 418.017,223.489 416.5,223.5C 417.829,201.042 417.829,178.542 416.5,156C 417.71,146.54 422.71,140.206 431.5,137C 468.165,136.5 504.832,136.333 541.5,136.5 Z"/></g>
<g><path style="opacity:0.447" fill="#d2d2d2" d="M 378.5,137.5 C 386.089,139.304 391.089,143.971 393.5,151.5C 394.818,161.253 394.318,170.919 392,180.5C 385.773,193.954 379.273,207.287 372.5,220.5C 370.654,220.778 369.32,220.111 368.5,218.5C 375.114,207.605 380.948,196.272 386,184.5C 389.021,176.249 390.855,167.749 391.5,159C 391.617,149.056 387.284,141.89 378.5,137.5 Z"/></g>
<g><path style="opacity:0.918" fill="#fefefe" d="M 624.5,158.5 C 623.671,215.096 623.171,271.763 623,328.5C 620.737,335.097 616.237,339.264 609.5,341C 572.835,341.5 536.168,341.667 499.5,341.5C 499.232,338.658 500.232,335.992 502.5,333.5C 535.664,334.664 568.997,334.831 602.5,334C 610,333.167 614.167,329 615,321.5C 615.832,268.998 615.665,216.665 614.5,164.5C 614.5,164.167 614.5,163.833 614.5,163.5C 615.873,163.657 617.207,163.49 618.5,163C 621.27,159.683 620.27,157.849 615.5,157.5C 616.869,155.876 618.536,155.376 620.5,156C 621.471,157.481 622.804,158.315 624.5,158.5 Z"/></g>
<g><path style="opacity:0.941" fill="#98e593" d="M 611.5,162.5 C 611.5,162.167 611.5,161.833 611.5,161.5C 612.873,161.343 614.207,161.51 615.5,162C 614.944,162.383 614.611,162.883 614.5,163.5C 614.5,163.833 614.5,164.167 614.5,164.5C 614.737,165.791 614.404,166.791 613.5,167.5C 613.5,166.167 613.5,164.833 613.5,163.5C 613.158,162.662 612.492,162.328 611.5,162.5 Z"/></g>
<g><path style="opacity:0.258" fill="#d3d3d3" d="M 128.5,86.5 C 129.93,86.4208 131.264,86.7542 132.5,87.5C 132.833,90.8333 133.167,94.1667 133.5,97.5C 132.227,112.147 131.227,126.813 130.5,141.5C 129.914,141.709 129.414,142.043 129,142.5C 129.104,183.708 128.271,224.875 126.5,266C 127.881,276.457 128.881,286.957 129.5,297.5C 130.086,297.709 130.586,298.043 131,298.5C 131.333,314.167 131.667,329.833 132,345.5C 133.739,348.682 133.905,352.016 132.5,355.5C 127.311,360.042 121.311,362.042 114.5,361.5C 118.95,360.285 123.283,358.451 127.5,356C 129.007,354.527 129.674,352.693 129.5,350.5C 127.962,329.857 126.796,309.19 126,288.5C 125.333,240.833 125.333,193.167 126,145.5C 126.743,127.763 128.243,110.097 130.5,92.5C 130.637,90.1595 129.97,88.1595 128.5,86.5 Z"/></g>
<g><path style="opacity:0.517" fill="#d4d4d4" d="M 358.5,178.5 C 358.88,172.004 355.88,169.838 349.5,172C 342.126,175.872 335.793,181.039 330.5,187.5C 327.969,194.86 326.802,202.527 327,210.5C 325.07,212.077 325.237,213.41 327.5,214.5C 326.828,215.267 325.995,215.934 325,216.5C 322.863,207.085 323.196,197.752 326,188.5C 331.654,180.187 339.154,174.02 348.5,170C 356.658,168.012 359.991,170.845 358.5,178.5 Z"/></g>
<g><path style="opacity:0.016" fill="#ebfef8" d="M 613.5,168.5 C 613.719,169.675 613.386,170.675 612.5,171.5C 611.893,171.376 611.56,171.043 611.5,170.5C 612.167,169.833 612.833,169.167 613.5,168.5 Z"/></g>
<g><path style="opacity:0.563" fill="#d5d5d5" d="M 984.5,174.5 C 985.487,168.669 983.154,166.502 977.5,168C 969.17,171.666 962.336,177.166 957,184.5C 954.805,192.938 953.972,201.605 954.5,210.5C 953.279,211.028 952.113,211.695 951,212.5C 950.333,204.833 950.333,197.167 951,189.5C 955.531,177.971 963.698,170.137 975.5,166C 983.737,164.046 986.737,166.879 984.5,174.5 Z"/></g>
<g><path style="opacity:0.024" fill="#b5f6cd" d="M 607.5,175.5 C 606.833,176.833 605.833,177.833 604.5,178.5C 604.5,176.5 605.5,175.5 607.5,175.5 Z"/></g>
<g><path style="opacity:0.536" fill="#d4d4d4" d="M 1004.5,133.5 C 1010.2,133.955 1014.53,136.621 1017.5,141.5C 1023.11,150.007 1024.28,159.007 1021,168.5C 1017.87,176.498 1014.87,184.498 1012,192.5C 1007.75,200.662 1003.25,208.662 998.5,216.5C 996.897,216.688 995.563,216.188 994.5,215C 1005.73,198.708 1013.23,180.875 1017,161.5C 1019.57,148.982 1015.4,139.649 1004.5,133.5 Z"/></g>
<g><path style="opacity:0.422" fill="#d5d5d5" d="M 262.5,135.5 C 263.5,135.5 264.5,135.5 265.5,135.5C 267.449,143.011 267.949,150.678 267,158.5C 264.741,165.361 261.575,172.027 257.5,178.5C 252.318,182.091 246.651,184.591 240.5,186C 226.497,186.606 212.497,187.273 198.5,188C 193.786,188.418 189.453,189.918 185.5,192.5C 184.176,204.327 184.176,215.993 185.5,227.5C 184.817,229.176 183.483,229.843 181.5,229.5C 181.168,216.816 181.501,204.149 182.5,191.5C 187.105,188.576 192.105,186.743 197.5,186C 209.5,185.667 221.5,185.333 233.5,185C 244.64,184.683 253.14,179.85 259,170.5C 263.996,159.068 265.163,147.402 262.5,135.5 Z"/></g>
<g><path style="opacity:0.485" fill="#d5d5d5" d="M 728.5,215.5 C 732.987,215.82 735.82,218.153 737,222.5C 737.438,232.228 736.772,241.894 735,251.5C 733.048,253.894 730.548,255.394 727.5,256C 713.638,259.05 699.971,262.883 686.5,267.5C 685.68,275.915 685.346,284.248 685.5,292.5C 684.167,292.5 682.833,292.5 681.5,292.5C 681.416,283.822 681.083,275.155 680.5,266.5C 695.611,261.631 710.945,257.465 726.5,254C 727.931,253.535 729.097,252.701 730,251.5C 731.179,241.744 732.012,231.91 732.5,222C 731.795,219.458 730.461,217.292 728.5,215.5 Z"/></g>
<g><path style="opacity:0.538" fill="#d4d4d4" d="M 868.5,130.5 C 880.103,133.275 887.603,140.275 891,151.5C 891.667,167.167 891.667,182.833 891,198.5C 889.85,203.208 888.516,207.875 887,212.5C 880.354,226.313 872.688,239.646 864,252.5C 857.431,260.769 850.931,269.102 844.5,277.5C 845.225,278.867 845.892,280.2 846.5,281.5C 843.884,280.52 841.551,279.02 839.5,277C 852.346,262.14 863.846,246.307 874,229.5C 884.798,210.973 889.965,190.973 889.5,169.5C 891.04,151.562 884.04,138.562 868.5,130.5 Z"/></g>
<g><path style="opacity:0.473" fill="#d4d4d4" d="M 854.5,176.5 C 832.354,178.961 818.854,190.961 814,212.5C 819.757,222.343 822.757,233.01 823,244.5C 823.383,243.944 823.883,243.611 824.5,243.5C 822.913,246.268 821.08,248.935 819,251.5C 819.396,239.418 817.396,227.751 813,216.5C 811.743,214.321 810.243,212.321 808.5,210.5C 812.736,199.853 819.07,190.686 827.5,183C 835.729,176.858 844.729,174.691 854.5,176.5 Z"/></g>
<g><path style="opacity:0.994" fill="#ecfaec" d="M 416.5,226.5 C 417.376,226.369 418.043,226.702 418.5,227.5C 420.137,230.433 421.47,233.433 422.5,236.5C 420.852,242.63 420.019,248.963 420,255.5C 419.313,258.426 417.48,259.759 414.5,259.5C 415.209,258.596 416.209,258.263 417.5,258.5C 417.809,247.752 417.476,237.085 416.5,226.5 Z"/></g>
<g><path style="opacity:0.482" fill="#d9d9d9" d="M 1014.5,225.5 C 1017.06,226.592 1019.23,228.258 1021,230.5C 1022.33,232.5 1023.67,234.5 1025,236.5C 1026.64,242.638 1028.14,248.805 1029.5,255C 1023.99,287.677 1006.65,312.011 977.5,328C 960.637,336.149 942.97,338.816 924.5,336C 922.685,335.243 921.019,334.41 919.5,333.5C 934.367,336.618 949.034,335.785 963.5,331C 995.171,318.336 1015,295.503 1023,262.5C 1025.98,248.59 1022.82,236.424 1013.5,226C 1013.73,225.601 1014.06,225.435 1014.5,225.5 Z"/></g>
<g><path style="opacity:0.451" fill="#d2d2d2" d="M 379.5,223.5 C 383.98,225.289 387.98,227.956 391.5,231.5C 401.078,242.342 404.245,255.008 401,269.5C 386.934,313.884 356.601,337.884 310,341.5C 306.112,341.406 302.279,340.906 298.5,340C 297.584,339.722 296.918,339.222 296.5,338.5C 304.131,339.564 311.798,339.731 319.5,339C 357.254,332.247 382.421,310.747 395,274.5C 402.016,253.517 396.849,236.517 379.5,223.5 Z"/></g>
<g><path style="opacity:0.579" fill="#d4d4d4" d="M 989.5,249.5 C 976.789,247.886 965.289,250.886 955,258.5C 952.268,270.301 950.935,282.301 951,294.5C 950.722,295.416 950.222,296.082 949.5,296.5C 948.834,299.028 948.168,301.694 947.5,304.5C 945.712,288.653 946.712,272.987 950.5,257.5C 962.365,248.275 975.365,245.609 989.5,249.5 Z"/></g>
<g><path style="opacity:0.522" fill="#d2d2d2" d="M 365.5,254.5 C 352.294,251.881 339.96,254.215 328.5,261.5C 327.877,263.966 327.043,266.299 326,268.5C 324.699,281.879 323.532,295.212 322.5,308.5C 321.5,308.5 320.5,308.5 319.5,308.5C 319.334,302.158 319.5,295.825 320,289.5C 320.733,280.01 322.233,270.677 324.5,261.5C 337.139,251.572 350.806,249.238 365.5,254.5 Z"/></g>
<g><path style="opacity:0.347" fill="#d6d7d6" d="M 16.5,255.5 C 17.1611,257.134 17.4944,258.967 17.5,261C 16.2057,279.686 14.539,298.186 12.5,316.5C 12.3334,302.496 12.5001,288.496 13,274.5C 13.414,274.043 13.914,273.709 14.5,273.5C 15.1668,267.346 15.8334,261.346 16.5,255.5 Z"/></g>
<g><path style="opacity:0.399" fill="#d6d6d6" d="M 92.5,261.5 C 86.0878,262.694 79.7544,264.194 73.5,266C 66.8417,266.5 60.175,266.666 53.5,266.5C 53.9088,270.499 53.0754,274.166 51,277.5C 49.5906,297.867 47.7573,318.201 45.5,338.5C 33.9636,346.324 22.2969,346.49 10.5,339C 11.3366,337.989 11.67,336.822 11.5,335.5C 13.309,338.139 15.6424,340.306 18.5,342C 27.7408,344.692 35.9074,342.859 43,336.5C 45.2539,312.515 47.4205,288.515 49.5,264.5C 55.7818,265.626 62.1151,265.793 68.5,265C 75.9929,263.17 83.4929,261.336 91,259.5C 92.0299,259.836 92.5299,260.503 92.5,261.5 Z"/></g>
<g><path style="opacity:0.406" fill="#d5d5d5" d="M 233.5,220.5 C 234.209,221.404 235.209,221.737 236.5,221.5C 239.212,233.259 239.045,244.926 236,256.5C 233.913,257.794 231.746,258.961 229.5,260C 214.985,263.268 200.652,267.101 186.5,271.5C 186.5,279.833 186.5,288.167 186.5,296.5C 185.5,296.5 184.5,296.5 183.5,296.5C 183.167,287.833 182.833,279.167 182.5,270.5C 198.388,265.48 214.388,260.98 230.5,257C 231.701,256.097 232.535,254.931 233,253.5C 233.234,244.31 233.734,235.144 234.5,226C 234.357,223.849 233.357,222.182 231.5,221C 232.094,220.536 232.761,220.369 233.5,220.5 Z"/></g>
<g><path style="opacity:0.843" fill="#83dc89" d="M 413.5,265.5 C 413.5,267.167 413.5,268.833 413.5,270.5C 412.078,270.291 410.745,269.791 409.5,269C 411.027,267.968 412.36,266.801 413.5,265.5 Z"/></g>
<g><path style="opacity:0.925" fill="#fefefe" d="M 416.5,271.5 C 421.028,272.591 424.695,274.924 427.5,278.5C 426.883,278.389 426.383,278.056 426,277.5C 425.333,292.167 425.333,306.833 426,321.5C 426.707,328.541 430.541,332.707 437.5,334C 446.16,334.5 454.827,334.666 463.5,334.5C 465.163,336.438 465.829,338.772 465.5,341.5C 453.829,341.667 442.162,341.5 430.5,341C 424.333,338.833 420.167,334.667 418,328.5C 417.821,309.427 417.321,290.427 416.5,271.5 Z"/></g>
<g><path style="opacity:0.433" fill="#d5d5d5" d="M 256.5,294.5 C 257.833,294.5 259.167,294.5 260.5,294.5C 261.509,297.541 262.176,300.708 262.5,304C 261.692,313.855 259.525,323.355 256,332.5C 249.368,339.49 241.201,342.323 231.5,341C 207.81,341.593 184.143,342.426 160.5,343.5C 157.971,343.071 155.638,342.404 153.5,341.5C 183.563,341.498 213.563,340.332 243.5,338C 247.241,336.262 250.408,333.762 253,330.5C 258.25,318.732 259.417,306.732 256.5,294.5 Z"/></g>
<g><path style="opacity:0.153" fill="#abecba" d="M 517.5,300.5 C 517.34,302.153 516.674,303.486 515.5,304.5C 515.229,302.62 515.896,301.287 517.5,300.5 Z"/></g>
<g><path style="opacity:0.52" fill="#d2d2d2" d="M 754.5,290.5 C 758.693,291.093 761.026,293.593 761.5,298C 760,306.441 758.5,314.941 757,323.5C 755.238,327.852 752.405,331.352 748.5,334C 742.327,335.932 735.994,336.932 729.5,337C 703.841,337.944 678.174,338.444 652.5,338.5C 680.337,337.253 708.337,336.087 736.5,335C 743.549,334.285 748.716,330.785 752,324.5C 756.493,313.261 757.326,301.928 754.5,290.5 Z"/></g>
<g><path style="opacity:0.475" fill="#d4d4d4" d="M 877.5,293.5 C 880.822,293.489 882.489,295.155 882.5,298.5C 877.361,311.522 873.028,324.855 869.5,338.5C 868.167,338.5 866.833,338.5 865.5,338.5C 867.551,327.389 871.051,316.722 876,306.5C 877.195,302.249 877.695,297.915 877.5,293.5 Z"/></g>
<g><path style="opacity:0.605" fill="#dadada" d="M 826.5,323.5 C 824.54,322.862 822.707,322.862 821,323.5C 820.248,326.894 820.415,330.227 821.5,333.5C 815.406,339.584 808.073,341.751 799.5,340C 797.509,339.626 795.842,338.793 794.5,337.5C 802.334,339.609 809.667,338.609 816.5,334.5C 816.305,329.639 816.638,324.639 817.5,319.5C 820.769,320.469 823.769,321.802 826.5,323.5 Z"/></g>
<g><path style="opacity:0.038" fill="#e4e4e4" d="M 9.5,350.5 C 13.1729,351.708 13.3396,353.374 10,355.5C 9.50649,353.866 9.33982,352.199 9.5,350.5 Z"/></g>
</svg>
