<!DOCTYPE svg PUBLIC "-//W3C//DTD SVG 1.1//EN" "http://www.w3.org/Graphics/SVG/1.1/DTD/svg11.dtd">
<!-- Uploaded to: SVG Repo, www.svgrepo.com, Transformed by: SVG Repo Mixer Tools -->
<svg fill="#000000" width="800px" height="800px" viewBox="-6.4 -6.4 76.80 76.80" id="Layer_1_1_" version="1.1" xml:space="preserve" xmlns="http://www.w3.org/2000/svg" xmlns:xlink="http://www.w3.org/1999/xlink" stroke="#000000" stroke-width="0.512">
<g id="SVGRepo_bgCarrier" stroke-width="0">
<rect x="-6.4" y="-6.4" width="76.80" height="76.80" rx="19.2" fill="#d889f5" strokewidth="0"/>
</g>
<g id="SVGRepo_tracerCarrier" stroke-linecap="round" stroke-linejoin="round"/>
<g id="SVGRepo_iconCarrier"> <g> <path d="M39,23H7c-1.103,0-2,0.897-2,2v28c0,1.103,0.897,2,2,2h32c1.103,0,2-0.897,2-2V25C41,23.897,40.103,23,39,23z M7,53V25h32 l0.001,28H7z"/> <path d="M48,29c1.654,0,3-1.346,3-3s-1.346-3-3-3s-3,1.346-3,3S46.346,29,48,29z M48,25c0.552,0,1,0.449,1,1s-0.448,1-1,1 s-1-0.449-1-1S47.448,25,48,25z"/> <path d="M56,23c-1.654,0-3,1.346-3,3s1.346,3,3,3s3-1.346,3-3S57.654,23,56,23z M56,27c-0.552,0-1-0.449-1-1s0.448-1,1-1 s1,0.449,1,1S56.552,27,56,27z"/> <path d="M47,36c0,2.757,2.243,5,5,5s5-2.243,5-5s-2.243-5-5-5S47,33.243,47,36z M52,33c1.654,0,3,1.346,3,3 c0,1.302-0.839,2.402-2,2.816V35h-2v3.816c-1.161-0.414-2-1.514-2-2.816C49,34.346,50.346,33,52,33z"/> <path d="M43,55h16V43H43V55z M45,45h12v8H45V45z"/> <rect height="2" width="2" x="43" y="39"/> <rect height="2" width="2" x="43" y="35"/> <rect height="2" width="2" x="43" y="31"/> <path d="M58,19H35.162L45.641,6.659C46.051,6.87,46.508,7,47,7c1.654,0,3-1.346,3-3s-1.346-3-3-3s-3,1.346-3,3 c0,0.427,0.093,0.832,0.255,1.201L32.537,19h-1.074L19.744,5.203C19.907,4.834,20,4.428,20,4c0-1.654-1.346-3-3-3s-3,1.346-3,3 s1.346,3,3,3c0.491,0,0.949-0.13,1.358-0.34L28.839,19H6c-2.757,0-5,2.243-5,5v30c0,2.757,2.243,5,5,5h1v1c0,1.654,1.346,3,3,3h44 c1.654,0,3-1.346,3-3v-1h1c2.757,0,5-2.243,5-5V24C63,21.243,60.757,19,58,19z M47,3c0.552,0,1,0.449,1,1s-0.448,1-1,1 s-1-0.449-1-1S46.448,3,47,3z M17,5c-0.552,0-1-0.449-1-1s0.448-1,1-1s1,0.449,1,1S17.552,5,17,5z M55,60c0,0.551-0.448,1-1,1H10 c-0.552,0-1-0.449-1-1v-1h46V60z M61,54c0,1.654-1.346,3-3,3H6c-1.654,0-3-1.346-3-3V24c0-1.654,1.346-3,3-3h52 c1.654,0,3,1.346,3,3V54z"/> <path d="M23,27c-6.617,0-12,5.383-12,12s5.383,12,12,12s12-5.383,12-12S29.617,27,23,27z M31.616,33.949 C31.49,33.968,31.364,34,31.236,34c-1.76,0-3.343,0.978-4.131,2.553C26.659,37.445,25.762,38,24.764,38H21c-0.552,0-1-0.449-1-1 c0-0.313,0.149-0.612,0.399-0.8l1.335-1C23.153,34.135,24,32.44,24,30.667c0-0.546,0.122-1.077,0.353-1.564 C27.449,29.524,30.094,31.364,31.616,33.949z M22.241,29.038C22.084,29.563,22,30.109,22,30.667c0,1.148-0.548,2.245-1.466,2.933 l-1.335,1.001C18.448,35.165,18,36.062,18,37c0,1.654,1.346,3,3,3h3.764c1.76,0,3.343-0.978,4.131-2.553 C29.341,36.555,30.238,36,31.236,36c0.42,0,0.833-0.062,1.238-0.176C32.81,36.823,33,37.889,33,39c0,0.356-0.02,0.707-0.057,1.053 C32.738,40.027,32.533,40,32.333,40c-1.773,0-3.469,0.847-4.533,2.267l-0.44,0.588C26.821,43.572,25.965,44,25.068,44 c-0.96,0-1.852-0.477-2.384-1.275C21.966,41.645,20.761,41,19.463,41h-0.762c-1.795,0-3.556,0.569-5.019,1.602 C13.248,41.483,13,40.271,13,39C13,33.742,17.082,29.429,22.241,29.038z M23,49c-3.52,0-6.615-1.833-8.397-4.59 c1.17-0.906,2.618-1.41,4.099-1.41h0.762c0.628,0,1.21,0.312,1.558,0.834C21.925,45.19,23.438,46,25.068,46 c1.522,0,2.978-0.728,3.891-1.946l0.44-0.587C30.089,42.548,31.186,42,32.333,42c0.065,0,0.133,0.014,0.199,0.018 C31.249,46.061,27.462,49,23,49z"/> </g> </g>
</svg>