<!DOCTYPE svg PUBLIC "-//W3C//DTD SVG 1.1//EN" "http://www.w3.org/Graphics/SVG/1.1/DTD/svg11.dtd">
<!-- Uploaded to: SVG Repo, www.svgrepo.com, Transformed by: SVG Repo Mixer Tools -->
<svg fill="#000000" height="800px" width="800px" version="1.1" id="Layer_1" xmlns="http://www.w3.org/2000/svg" xmlns:xlink="http://www.w3.org/1999/xlink" viewBox="-51.2 -51.2 614.40 614.40" xml:space="preserve" stroke="#000000" stroke-width="5.12">
<g id="SVGRepo_bgCarrier" stroke-width="0" transform="translate(0,0), scale(1)">
<rect x="-51.2" y="-51.2" width="614.40" height="614.40" rx="153.6" fill="#50cefe" strokewidth="0"/>
</g>
<g id="SVGRepo_tracerCarrier" stroke-linecap="round" stroke-linejoin="round" stroke="#CCCCCC" stroke-width="1.024"/>
<g id="SVGRepo_iconCarrier"> <g transform="translate(1 1)"> <g> <g> <path d="M178.2,212.333c0,5.12,3.413,8.533,8.533,8.533H229.4c5.12,0,8.533-3.413,8.533-8.533c0-5.12-3.413-8.533-8.533-8.533 h-42.667C181.613,203.8,178.2,207.213,178.2,212.333z"/> <path d="M58.733,220.867H152.6c5.12,0,8.533-3.413,8.533-8.533c0-5.12-3.413-8.533-8.533-8.533H58.733 c-5.12,0-8.533,3.413-8.533,8.533C50.2,217.453,53.613,220.867,58.733,220.867z"/> <path d="M229.4,237.933h-93.867c-5.12,0-8.533,3.413-8.533,8.533s3.413,8.533,8.533,8.533H229.4c5.12,0,8.533-3.413,8.533-8.533 S234.52,237.933,229.4,237.933z"/> <path d="M58.733,255H101.4c5.12,0,8.533-3.413,8.533-8.533s-3.413-8.533-8.533-8.533H58.733c-5.12,0-8.533,3.413-8.533,8.533 S53.613,255,58.733,255z"/> <path d="M468.333-1H41.667C17.773-1-1,17.773-1,41.667v307.2V383c0,23.893,18.773,42.667,42.667,42.667h150.272l-20.48,68.267 h-10.325c-5.12,0-8.533,3.413-8.533,8.533s3.413,8.533,8.533,8.533H178.2h153.6h17.067c5.12,0,8.533-3.413,8.533-8.533 s-3.413-8.533-8.533-8.533h-10.325l-20.48-68.267h150.272C492.227,425.667,511,406.893,511,383v-34.133v-307.2 C511,17.773,492.227-1,468.333-1z M16.067,41.667c0-14.507,11.093-25.6,25.6-25.6h426.667c14.507,0,25.6,11.093,25.6,25.6 v298.667H16.067V41.667z M319.853,493.933h-130.56l20.48-68.267h89.6L319.853,493.933z M493.933,383 c0,14.507-11.093,25.6-25.6,25.6H306.2H203.8H41.667c-14.507,0-25.6-11.093-25.6-25.6v-25.6h477.867V383z"/> <path d="M348.867,152.6c33.28,0,59.733-26.453,59.733-59.733c0-33.28-26.453-59.733-59.733-59.733s-59.733,26.453-59.733,59.733 C289.133,126.147,315.587,152.6,348.867,152.6z M348.867,50.2c23.893,0,42.667,18.773,42.667,42.667 c0,23.893-18.773,42.667-42.667,42.667c-23.893,0-42.667-18.773-42.667-42.667C306.2,68.973,324.973,50.2,348.867,50.2z"/> <path d="M468.333,272.067H434.2v-34.133c0-30.72-17.067-59.733-43.52-75.093c-2.56-0.853-5.12-0.853-7.68,0 c-21.333,9.387-46.08,9.387-67.413,0c-2.56-1.707-5.12-0.853-7.68,0c-27.307,15.36-44.373,44.373-44.373,75.093v34.133H50.2 c-5.12,0-8.533,3.413-8.533,8.533v34.133c0,5.12,3.413,8.533,8.533,8.533h418.133c5.12,0,8.533-3.413,8.533-8.533V280.6 C476.867,275.48,473.453,272.067,468.333,272.067z M348.867,195.267l15.36,15.36l-15.36,30.72l-15.36-30.72L348.867,195.267z M279.747,237.933c0-23.893,12.8-45.227,32.427-58.027c7.04,2.608,14.401,4.408,21.884,5.422l-16.764,16.764 c-2.56,2.56-3.413,6.827-1.707,10.24l25.6,51.2c1.707,3.413,4.267,5.12,7.68,5.12c3.413,0,5.973-1.707,7.68-5.12l25.6-51.2 c1.707-3.413,0.853-7.68-1.707-10.24l-16.877-16.877c7.227-1.031,14.336-2.788,21.144-5.309 c20.48,12.8,32.427,34.133,32.427,58.027v34.133H280.6L279.747,237.933z M459.8,306.2H58.733v-17.067h213.333h153.6H459.8V306.2z "/> <path d="M144.067,186.733c42.667,0,76.8-34.133,76.8-76.8s-34.133-76.8-76.8-76.8c-42.667,0-76.8,34.133-76.8,76.8 S101.4,186.733,144.067,186.733z M84.936,118.467h25.202c0.787,17.026,3.922,33.475,9.257,45.965 C101.086,156.237,87.826,139.148,84.936,118.467z M144.067,50.2c4.727,0,15.264,18.194,16.856,51.2h-33.712 C128.803,68.394,139.34,50.2,144.067,50.2z M160.923,118.467c-1.592,33.006-12.129,51.2-16.856,51.2s-15.264-18.194-16.856-51.2 H160.923z M168.738,164.431c5.335-12.49,8.47-28.938,9.257-45.965h25.202C200.307,139.147,187.047,156.237,168.738,164.431z M203.197,101.4h-25.202c-0.787-17.026-3.922-33.475-9.257-45.965C187.047,63.629,200.307,80.719,203.197,101.4z M119.395,55.435 c-5.335,12.49-8.47,28.938-9.257,45.965H84.936C87.826,80.719,101.086,63.629,119.395,55.435z"/> </g> </g> </g> </g>
</svg>