<!DOCTYPE svg PUBLIC "-//W3C//DTD SVG 1.1//EN" "http://www.w3.org/Graphics/SVG/1.1/DTD/svg11.dtd">
<!-- Uploaded to: SVG Repo, www.svgrepo.com, Transformed by: SVG Repo Mixer Tools -->
<svg version="1.1" id="Uploaded to svgrepo.com" xmlns="http://www.w3.org/2000/svg" xmlns:xlink="http://www.w3.org/1999/xlink" width="800px" height="800px" viewBox="-3.2 -3.2 38.40 38.40" xml:space="preserve" fill="#ffc8c8" stroke="#ffc8c8" stroke-width="0.512">
<g id="SVGRepo_bgCarrier" stroke-width="0">
<rect x="-3.2" y="-3.2" width="38.40" height="38.40" rx="9.6" fill="#ff6c6c" strokewidth="0"/>
</g>
<g id="SVGRepo_tracerCarrier" stroke-linecap="round" stroke-linejoin="round"/>
<g id="SVGRepo_iconCarrier"> <style type="text/css"> .feather_een{fill:#ffffff;} </style> <path class="feather_een" d="M24.536,23.464C25.473,22.527,26,21.255,26,19.929V12c0-1.657-1.343-3-3-3h-5V2.5 C18,1.119,16.881,0,15.5,0C14.119,0,13,1.119,13,2.5V9h-1c-1.182,0-2.195,0.69-2.683,1.683l-1.852,1.852 C6.527,13.473,6,14.745,6,16.071v2.858c0,1.326,0.527,2.598,1.464,3.536L9,24v1c-0.552,0-1,0.448-1,1v5c0,0.552,0.448,1,1,1h15 c0.552,0,1-0.448,1-1v-5c0-0.552-0.448-1-1-1v-1L24.536,23.464z M24,31H9v-5h15V31z M23.828,22.757L23,23.586V25H10v-1.414 l-1.828-1.828C7.421,21.007,7,19.99,7,18.929v-2.858c0-1.061,0.421-2.078,1.172-2.828L9,12.414V15.5C9,15.776,9.224,16,9.5,16 s0.5-0.224,0.5-0.5V12c0-1.105,0.895-2,2-2h1v1.5c0,0.276,0.224,0.5,0.5,0.5s0.5-0.224,0.5-0.5V2.552 c0-0.762,0.546-1.443,1.303-1.54C16.217,0.895,17,1.608,17,2.5v9c0,0.276,0.224,0.5,0.5,0.5s0.5-0.224,0.5-0.5V10h3v1.5 c0,0.276,0.224,0.5,0.5,0.5s0.5-0.224,0.5-0.5V10h1c1.105,0,2,0.895,2,2v7.929C25,20.99,24.579,22.007,23.828,22.757z"/> </g>
</svg>