<svg width="560" height="520" xmlns="http://www.w3.org/2000/svg" xmlns:undefined="http://sodipodi.sourceforge.net/DTD/sodipodi-0.dtd" xmlns:undefined="http://www.inkscape.org/namespaces/inkscape" version="1.0">
 <metadata id="metadata22">image/svg+xml</metadata>

 <g>
  <title>Layer 1</title>
  <g stroke-width="7.43207" display="inline"   id="layer1" >
   <g id="g1934">
    <path stroke-width="8.43207" stroke="#ddf8ff" fill-rule="evenodd" fill="none" id="path11" d="m27.24876,259.00828l518.23459,0"/>
    <path stroke-width="8.43207" stroke="#ddf8ff" fill-rule="evenodd" fill="none" id="path13" d="m27.24876,499.00828l518.23459,0"/>
    <path stroke-width="8.43207" stroke="#ddf8ff" fill-rule="evenodd" fill="none" id="path15" d="m27.24876,379.00828l518.23459,0"/>
    <path stroke-width="8.43207" stroke="#ddf8ff" fill-rule="evenodd" fill="none" id="path17" d="m27.24876,139.00828l518.23459,0"/>
    <path stroke-width="8.43207" stroke="#ddf8ff" fill-rule="evenodd" fill="none" id="path19" d="m27.24876,19.00828l518.23459,0"/>
   </g>
  </g>
  <g display="inline"  id="layer2" >
   <path stroke-width="0.60002" stroke="#131516" fill="#ffffff" d="m103.85139,494.80793l0,-460.41827l0,-10.18271l53.2931,0l0,460.41827l0,10.18271l-53.2931,0zm80.14,0l0,-460.41827l0,-10.18271l17.02975,0l0,230.60846c8.4147,-4.39254 17.02975,-13.37729 25.44445,-27.55322c8.61505,-13.97627 15.82765,-28.75118 21.43745,-44.5244c5.6098,-15.77322 8.61505,-27.35356 9.01575,-34.94068c2.60455,16.77153 6.8119,30.14881 12.4217,40.33152c5.81015,9.98305 12.021,17.17085 19.2336,21.56339c7.2126,4.19288 14.22485,6.38915 21.43745,6.38915c17.83115,0 29.05075,-7.98644 33.85915,-24.15898c4.8084,-16.17254 7.2126,-35.93898 7.2126,-59.29931c0,-10.58204 -0.20035,-20.16577 -0.8014,-28.55153c-0.60105,-8.38576 -1.80315,-16.97118 -4.007,-25.55661c-2.0035,-8.58542 -5.40945,-16.3722 -10.21785,-23.16067c-5.00875,-6.78848 -11.41995,-11.58034 -19.43395,-13.97627c-7.2126,-1.99661 -14.4252,-2.99492 -21.43745,-2.99492c-6.4112,0 -11.82065,1.19797 -16.028,3.39424c-4.4077,2.19627 -6.8119,5.59051 -7.2126,9.58373c1.00175,3.5939 3.40595,7.78678 7.6133,12.7783c4.20735,4.79187 7.01225,8.58543 8.61505,10.98136c1.6028,2.39593 2.4042,5.79017 2.4042,10.38237c0,8.1861 -2.8049,14.97457 -8.4147,20.56508c-5.6098,5.59051 -13.02275,8.58543 -22.4392,8.58543c-9.2161,0 -16.8294,-3.39424 -22.4392,-9.98305c-5.6098,-6.78848 -8.61505,-14.77492 -9.01575,-23.75966c0.8014,-12.17932 5.2091,-22.76136 13.02275,-31.54644c8.014,-8.58542 17.83115,-15.17424 29.6518,-19.56678c11.82065,-4.39254 23.6413,-6.58881 35.6623,-6.58881c13.6238,0 26.64655,2.39593 39.06825,7.18779c12.62205,4.79187 23.84165,11.97966 33.45845,21.16407c9.81715,9.38407 17.6308,20.76474 23.2406,34.34169c5.6098,13.37729 8.4147,28.75119 8.4147,45.72237c0,23.56 -4.4077,43.12678 -13.02275,58.50067c-8.8154,15.57356 -20.035,27.1539 -33.6588,34.34169c-13.82415,7.1878 -28.4497,11.18102 -43.87665,11.58034c-16.028,-0.9983 -29.45145,-4.5922 -40.07,-10.78169l-21.2371,34.34169l21.2371,34.14203c14.62555,-5.98983 29.05075,-8.98474 43.07525,-8.98474c17.83115,0 33.2581,5.19118 46.68155,15.17423c13.2231,10.18271 23.44095,23.16068 30.4532,39.33322c6.8119,16.17254 10.4182,32.7444 10.4182,49.91525c0,18.76813 -4.20735,36.3383 -12.62205,52.51084c-8.4147,16.17254 -20.23535,28.95085 -35.46195,38.73424c-15.42695,9.58372 -32.8574,14.37559 -52.69205,14.37559c-23.04025,-0.99831 -42.27385,-6.38915 -57.7008,-16.3722c-15.42695,-9.78339 -23.04025,-24.55831 -23.04025,-43.92542c0.8014,-9.38407 4.20735,-16.57187 10.21785,-21.96271c6.0105,-5.59051 12.4217,-8.38576 19.43395,-8.98475c8.4147,0 16.028,2.99492 22.63955,8.98475c6.61155,5.79017 10.0175,13.17762 10.0175,21.96271c0,3.39423 -0.8014,6.58881 -2.4042,9.58373c-1.6028,2.79525 -3.80665,6.18949 -7.01225,10.18271c-3.2056,3.79356 -5.40945,6.58881 -6.61155,8.38576c-1.2021,1.99661 -2.20385,4.19288 -2.60455,6.98813c0,3.5939 2.20385,6.58882 6.8119,8.98475c4.4077,2.39593 10.21785,3.79356 17.2301,4.39254c22.0385,-0.9983 36.66405,-10.38237 44.077,-27.75288c7.2126,-17.76983 10.8189,-39.53288 10.8189,-66.08779c0,-22.96102 -2.60455,-43.12678 -7.81365,-60.29762c-5.2091,-17.37051 -16.4287,-25.95593 -34.0595,-25.95593c-15.6273,0 -27.6483,6.58881 -36.063,20.16576c-8.4147,13.37729 -13.82415,29.1505 -16.22835,47.31966c-2.60455,-15.3739 -6.61155,-30.14881 -12.4217,-44.32475c-5.81015,-14.37559 -12.4217,-26.95423 -20.23535,-37.73593c-7.41295,-10.58203 -15.6273,-19.16745 -24.042,-25.15728l0,231.60676l-17.02975,0z" id="path2432"/>
  </g>
 </g>
</svg>