<?xml version="1.0" encoding="UTF-8"?>
<!DOCTYPE svg PUBLIC "-//W3C//DTD SVG 1.1//EN" "http://www.w3.org/Graphics/SVG/1.1/DTD/svg11.dtd">
<svg xmlns="http://www.w3.org/2000/svg" version="1.1" width="270px" height="98px" style="shape-rendering:geometricPrecision; text-rendering:geometricPrecision; image-rendering:optimizeQuality; fill-rule:evenodd; clip-rule:evenodd" xmlns:xlink="http://www.w3.org/1999/xlink">
<g><path style="opacity:1" fill="#15ae12" d="M 161.5,39.5 C 159.077,40.9501 157.077,42.9501 155.5,45.5C 145.243,54.7719 137.243,65.7719 131.5,78.5C 129.75,79.6594 128.75,81.326 128.5,83.5C 128.128,87.8719 125.795,90.2052 121.5,90.5C 121.5,88.1667 121.5,85.8333 121.5,83.5C 121.946,80.9899 121.28,78.9899 119.5,77.5C 118.149,73.4584 115.815,70.1251 112.5,67.5C 111.599,65.2729 109.933,64.2729 107.5,64.5C 106.375,63.6522 106.375,62.6522 107.5,61.5C 108.117,61.3893 108.617,61.056 109,60.5C 109.077,57.2424 109.244,54.0757 109.5,51C 110.176,49.3167 111.176,49.1501 112.5,50.5C 113.873,50.3433 115.207,50.51 116.5,51C 120.422,54.2508 123.588,58.0841 126,62.5C 129.183,52.4683 133.683,43.1349 139.5,34.5C 141.543,33.4206 142.876,31.754 143.5,29.5C 153.318,16.7104 165.985,7.71041 181.5,2.5C 182.386,3.32496 182.719,4.32496 182.5,5.5C 187.822,6.12579 188.489,8.12579 184.5,11.5C 185.853,12.5237 186.52,13.857 186.5,15.5C 190.327,15.4401 190.994,16.6068 188.5,19C 181.76,23.0703 175.593,27.9036 170,33.5C 169.667,33.1667 169.333,32.8333 169,32.5C 167.285,35.7168 164.785,38.0502 161.5,39.5 Z"/></g>
<g><path style="opacity:1" fill="#fefefe" d="M 26.5,15.5 C 28.8568,15.3367 31.1902,15.5034 33.5,16C 34.0814,16.8926 34.4148,17.8926 34.5,19C 33.1862,41.0527 33.1862,63.0527 34.5,85C 31.9976,87.212 28.9976,88.0453 25.5,87.5C 23.8218,79.2523 22.6551,70.919 22,62.5C 19.3788,63.9915 16.5455,64.6582 13.5,64.5C 13.6314,70.2213 13.1314,75.888 12,81.5C 9.15923,83.5037 5.99257,84.0037 2.5,83C 1.87782,81.4309 1.54449,79.7642 1.5,78C 3.33082,59.2095 4.49749,40.3762 5,21.5C 8.05675,20.5495 11.2234,20.2161 14.5,20.5C 13.7345,29.4789 13.4011,38.4789 13.5,47.5C 16.4802,47.3797 19.3135,46.713 22,45.5C 22.3351,37.4707 23.0018,29.4707 24,21.5C 24.2365,19.1548 25.0698,17.1548 26.5,15.5 Z"/></g>
<g><path style="opacity:1" fill="#fefefe" d="M 88.5,27.5 C 94.0441,26.9067 98.2108,28.9067 101,33.5C 102.299,46.2465 98.4652,57.2465 89.5,66.5C 92.5247,67.4291 95.3581,68.7624 98,70.5C 97.6535,74.8934 96.8202,79.2267 95.5,83.5C 90.9272,83.88 86.9272,82.5467 83.5,79.5C 82.7379,80.6283 82.0712,81.7949 81.5,83C 79.1902,83.4966 76.8568,83.6633 74.5,83.5C 74.111,75.1643 73.611,66.8309 73,58.5C 71,57.8333 69.6667,56.5 69,54.5C 68.1767,40.1285 74.6767,31.1285 88.5,27.5 Z M 89.5,41.5 C 90.6431,41.9081 91.6431,42.5748 92.5,43.5C 89.8222,48.1881 86.6556,52.5215 83,56.5C 79.9094,49.1211 82.0761,44.1211 89.5,41.5 Z"/></g>
<g><path style="opacity:1" fill="#fefefe" d="M 47.5,28.5 C 54.5079,28.3337 61.5079,28.5004 68.5,29C 69.7054,34.0748 68.3721,38.4081 64.5,42C 58.9144,43.217 53.2478,44.0503 47.5,44.5C 47.5,46.8333 47.5,49.1667 47.5,51.5C 51.6929,49.9253 56.0262,49.4253 60.5,50C 61.1271,51.7378 61.4604,53.5711 61.5,55.5C 61.712,58.0114 61.0454,60.1781 59.5,62C 55.8883,63.15 52.2217,63.9834 48.5,64.5C 48.5,66.1667 48.5,67.8333 48.5,69.5C 54.4781,68.5915 60.4781,68.4248 66.5,69C 67.8249,72.915 67.4916,76.7483 65.5,80.5C 63.7801,81.934 61.7801,82.7674 59.5,83C 52.1742,83.4997 44.8409,83.6663 37.5,83.5C 37.3334,67.1633 37.5001,50.8299 38,34.5C 38.2492,33.376 38.7492,32.376 39.5,31.5C 42.1939,30.2465 44.8606,29.2465 47.5,28.5 Z"/></g>
<g><path style="opacity:1" fill="#fdfefd" d="M 143.5,29.5 C 142.876,31.754 141.543,33.4206 139.5,34.5C 131.493,34.3336 123.493,34.5003 115.5,35C 114.667,35.8333 113.833,36.6667 113,37.5C 112.501,41.8206 112.334,46.1539 112.5,50.5C 111.176,49.1501 110.176,49.3167 109.5,51C 109.244,54.0757 109.077,57.2424 109,60.5C 108.617,61.056 108.117,61.3893 107.5,61.5C 107.334,53.4931 107.5,45.4931 108,37.5C 108.69,34.804 110.19,32.6374 112.5,31C 122.754,29.5738 133.088,29.0738 143.5,29.5 Z"/></g>
<g><path style="opacity:1" fill="#fefefe" d="M 221.5,29.5 C 228.178,28.5102 232.345,31.1769 234,37.5C 234.898,49.4748 231.065,59.6415 222.5,68C 225.279,69.7224 228.279,70.8891 231.5,71.5C 230.904,76.1993 229.571,80.6993 227.5,85C 223.412,85.7111 219.912,84.5445 217,81.5C 216.535,82.9308 215.701,84.0975 214.5,85C 212.19,85.4966 209.857,85.6633 207.5,85.5C 207.83,77.1067 207.33,68.7733 206,60.5C 201.94,57.5561 200.606,53.5561 202,48.5C 204.438,37.8947 210.938,31.5613 221.5,29.5 Z M 222.5,43.5 C 224.273,44.3143 224.773,45.6476 224,47.5C 221.659,50.6709 219.159,53.6709 216.5,56.5C 215.194,54.2842 214.694,51.9508 215,49.5C 217.109,46.8782 219.609,44.8782 222.5,43.5 Z"/></g>
<g><path style="opacity:1" fill="#fefefe" d="M 180.5,30.5 C 187.5,30.5 194.5,30.5 201.5,30.5C 202.298,35.7154 200.964,40.2154 197.5,44C 191.914,45.217 186.248,46.0503 180.5,46.5C 180.5,48.8333 180.5,51.1667 180.5,53.5C 184.445,52.3437 188.445,51.8437 192.5,52C 194.929,55.7048 194.929,59.5381 192.5,63.5C 188.649,65.1294 184.649,66.1294 180.5,66.5C 180.5,68.1667 180.5,69.8333 180.5,71.5C 186.816,70.6423 193.15,70.4756 199.5,71C 202.17,78.3267 199.837,82.9934 192.5,85C 185.508,85.4996 178.508,85.6663 171.5,85.5C 170.074,68.1567 170.241,50.8234 172,33.5C 174.87,32.3068 177.704,31.3068 180.5,30.5 Z"/></g>
<g><path style="opacity:1" fill="#fefefe" d="M 252.5,30.5 C 256.182,30.3347 259.848,30.5014 263.5,31C 266.77,33.3756 267.936,36.5423 267,40.5C 265.989,44.3678 264.489,48.0345 262.5,51.5C 264.476,53.3967 266.31,55.3967 268,57.5C 268.756,74.0922 260.756,83.4256 244,85.5C 234.408,81.885 233.075,76.2183 240,68.5C 240.735,64.1866 241.235,59.8533 241.5,55.5C 236.425,55.8197 234.592,53.4863 236,48.5C 239.638,40.6998 245.138,34.6998 252.5,30.5 Z M 255.5,42.5 C 254.151,45.4475 252.317,48.1141 250,50.5C 249.605,46.2868 251.439,43.6201 255.5,42.5 Z M 252.5,62.5 C 258.113,61.079 260.28,63.079 259,68.5C 247.638,77.544 245.471,75.544 252.5,62.5 Z"/></g>
<g><path style="opacity:1" fill="#fdfefd" d="M 161.5,39.5 C 161.92,52.2278 161.42,64.8944 160,77.5C 157.924,80.5879 155.091,82.4212 151.5,83C 143.841,83.4997 136.174,83.6664 128.5,83.5C 128.75,81.326 129.75,79.6594 131.5,78.5C 137.842,78.6662 144.175,78.4995 150.5,78C 152.329,77.7265 153.829,76.8932 155,75.5C 156.091,70.0804 156.591,64.5804 156.5,59C 156.499,54.3205 156.166,49.8205 155.5,45.5C 157.077,42.9501 159.077,40.9501 161.5,39.5 Z"/></g>
<g><path style="opacity:1" fill="#fdfefd" d="M 107.5,64.5 C 109.933,64.2729 111.599,65.2729 112.5,67.5C 111.166,73.1764 113.166,76.843 118.5,78.5C 119.107,78.3764 119.44,78.0431 119.5,77.5C 121.28,78.9899 121.946,80.9899 121.5,83.5C 109.861,82.616 105.194,76.2827 107.5,64.5 Z"/></g>
</svg>
